<?xml version="1.0" encoding="UTF-8"?>
<svg width="154px" height="41px" viewBox="0 0 154 41" version="1.1" xmlns="http://www.w3.org/2000/svg" xmlns:xlink="http://www.w3.org/1999/xlink">
    <!-- Generator: sketchtool 49.3 (51167) - http://www.bohemiancoding.com/sketch -->
    <title>C1855EC2-2622-48D3-85CA-1302FD9E2B0C</title>
    <desc>Created with sketchtool.</desc>
    <defs></defs>
    <g id="Home" stroke="none" stroke-width="1" fill="none" fill-rule="evenodd">
        <g transform="translate(-199.000000, -356.000000)" id="banner">
            <g>
                <g id="button-my-list" transform="translate(199.000000, 356.000000)">
                    <g id="button-my-list-hover">
                        <rect id="bg-boton" fill-opacity="0.4" fill="#333333" x="0" y="0" width="154" height="41" rx="3"></rect>
                        <path d="M46,21.5 L46,27.5 C46,27.7761424 45.7761424,28 45.5,28 L43.5,28 C43.2238576,28 43,27.7761424 43,27.5 L43,21.5 L37,21.5 C36.7238576,21.5 36.5,21.2761424 36.5,21 L36.5,19 C36.5,18.7238576 36.7238576,18.5 37,18.5 L43,18.5 L43,12.5 C43,12.2238576 43.2238576,12 43.5,12 L45.5,12 C45.7761424,12 46,12.2238576 46,12.5 L46,18.5 L52,18.5 C52.2761424,18.5 52.5,18.7238576 52.5,19 L52.5,21 C52.5,21.2761424 52.2761424,21.5 52,21.5 L46,21.5 Z" id="icon-plus" fill="#FFFFFF"></path>
                        <text id="My-List" font-family="Helvetica-Bold, Helvetica" font-size="16" font-weight="bold" letter-spacing="0.200000003" fill="#FFFFFF">
                            <tspan x="64" y="26">My Lis</tspan>
                            <tspan x="114.989063" y="26">t</tspan>
                        </text>
                    </g>
                </g>
            </g>
        </g>
    </g>
</svg>